<?xml version="1.0" encoding="UTF-8" standalone="no"?>
<svg
   width="512"
   height="512"
   version="1.0"
   id="svg7"
   xmlns="http://www.w3.org/2000/svg"
   xmlns:svg="http://www.w3.org/2000/svg">
  <defs
     id="defs7" />
  <rect
     width="511.45099"
     height="511.43201"
     x="0.27500001"
     y="0.39199999"
     ry="9.066"
     style="fill:#f9f1e0;fill-opacity:1;stroke-width:277.685;stroke-linecap:square;stroke-linejoin:bevel;paint-order:fill markers stroke"
     id="rect1" />
  <g
     id="g1">
    <g
       id="g2"
       transform="matrix(0.75274801,0,0,0.75274801,63.296391,48.241797)">
      <g
         fill="#e3ca8d"
         id="g4">
        <path
           d="m 401.09,480.016 c -1.2,-2.6 -2.9,-7.9 -4,-11.8 -1.1,-3.8 -3.6,-11.9 -5.5,-17.9 -2,-6.1 -4.4,-13.8 -5.3,-17.2 -1,-3.8 -2.3,-6.3 -3.1,-6.3 -3.3,0 -0.9,-4.2 5.4,-9.4 6.7,-5.5 9.3,-6.8 9.3,-4.3 0,1.6 5.5,4.9 20.8,12.8 30.6,15.8 32.2,16.7 32.2,18.5 0,3 -6.4,9.7 -11.4,12 -4.4,2 -5.5,3 -6,5.6 -0.9,4.3 -7.3,10.2 -12.9,11.8 -2.9,0.8 -4.9,1.9 -5.2,3.1 -1.1,3.4 -6.5,7.9 -9.5,7.9 -2.3,0 -3.1,-0.7 -4.8,-4.8 z m -166.1,-35.2 c -7.9,-1.9 -16,-11.1 -16.1,-18.2 0,-1.8 -0.7,-2.9 -2.1,-3.3 -1.1,-0.4 -2.2,-0.5 -2.3,-0.3 -0.1,0.1 -1.3,2 -2.5,4.1 -2.9,4.7 -9.4,8.6 -16,9.4 -4.2,0.5 -5.9,0.1 -10.6,-2.1 -8.6,-4.3 -13,-11.7 -12.4,-21.2 0.4,-6.2 -1.4,-7.2 -6,-3.2 -6,5.3 -14.1,7.6 -14.1,4 0,-1.1 1.3,-2.1 4.1,-3 2.3,-0.7 5.3,-2.6 6.8,-4.2 1.4,-1.7 3.1,-3 3.7,-3 1.8,0 2.7,-10.2 1.3,-14.9 -0.7,-2.3 -1.6,-4.1 -2.1,-4.1 -0.4,0 -0.8,-0.9 -0.8,-2 0,-1.3 -0.7,-2 -2,-2 -1.1,0 -2.3,-0.6 -2.6,-1.4 -0.3,-0.8 -2.1,-1.7 -4,-2 -2.5,-0.5 -3.4,-1.2 -3.4,-2.6 0,-2.6 2.9,-2.6 7.9,0 8.2,4.1 13,13.8 11.6,23.4 -0.6,4.1 -0.5,4.6 1.1,4.6 1.1,0 2.5,-0.9 3.1,-1.9 0.7,-1.1 3.4,-3.2 6,-4.8 3.9,-2.2 6,-2.8 10.8,-2.8 11.5,0.1 19.8,7.8 21.2,19.6 0.8,6.4 3.2,6.6 6.5,0.7 4.7,-8.5 16,-12.9 25.3,-9.8 5,1.6 10.7,6.9 13,12 2,4.5 5.5,5.6 5.5,1.8 0,-12.3 12.5,-23 24.7,-21.2 5.9,0.9 12.7,5.5 15.5,10.4 2.7,4.8 3.2,4.8 16,-0.2 12.4,-4.9 21.4,-10.1 21,-12.1 -0.2,-1.2 0.4,-1.7 2.3,-1.7 2.2,0 2.5,0.4 2.5,3.3 0,3 -0.5,3.6 -7.2,7.2 -4,2.1 -12.7,6 -19.3,8.7 -12,4.7 -12,4.7 -12.7,9.3 -1.8,12.2 -13.5,20.2 -25.4,17.6 -5.6,-1.3 -12.5,-6.4 -14.9,-11.1 -2,-3.9 -6,-3.1 -6.9,1.3 -2.2,10.8 -15.3,18.6 -26.5,15.7 z m 11.5,-4.7 c 4.9,-2.4 9,-6.5 10.5,-10.8 0.7,-1.9 1.9,-3.5 2.6,-3.5 1.8,0 1.6,-1.7 -0.2,-2.4 -0.9,-0.3 -1.5,-1.9 -1.5,-4.1 0,-2.4 -0.4,-3.5 -1.5,-3.5 -1,0 -1.5,-1 -1.5,-3 0,-2.7 -0.3,-3 -3,-3 -1.6,0 -3,-0.4 -3,-0.9 0,-0.6 -2.1,-1.3 -4.6,-1.7 -6,-0.9 -12,1 -15.1,4.7 -1.4,1.6 -3.1,2.9 -3.9,2.9 -0.9,0 -1.4,1.1 -1.4,3 0,1.8 -0.6,3.3 -1.5,3.6 -1.7,0.7 -2.1,3.4 -0.5,3.4 0.6,0 1,1.4 1,3 0,1.7 0.5,3 1,3 0.6,0 1,0.4 1,0.9 0,1.7 5.9,6.8 9.7,8.4 5,2.1 7.4,2.1 11.9,0 z m 58.6,-22.2 c 0,-9.8 -8,-17.8 -17.8,-17.8 -9.9,0 -17.8,8 -17.8,17.8 0,9.8 7.9,17.8 17.8,17.8 9.8,0 17.8,-8 17.8,-17.8 z m -93.4,-3.2 c 0,-9.7 -7.9,-17.6 -17.6,-17.6 -9.7,0 -17.6,7.9 -17.6,17.6 0,9.8 7.9,17.7 17.6,17.7 9.7,0 17.6,-7.9 17.6,-17.7 z m -66.8,0 c -4.8,-1.9 -9.3,-6.2 -11.6,-11.3 -2.8,-5.9 -3,-10.6 -0.9,-16.7 1.4,-3.8 1.4,-4.4 0,-5.8 -1.3,-1.4 -1.8,-1.4 -4.3,0.1 -1.5,0.9 -4.4,1.9 -6.4,2.3 -3.4,0.7 -3.8,0.5 -3.8,-1.4 0,-1.7 0.6,-2.1 3,-2.1 1.7,0 3,-0.4 3,-1 0,-0.5 1.6,-1 3.5,-1 3.2,0 3.5,-0.2 3.5,-3 0,-1.6 0.4,-3 0.8,-3 0.5,0 1.4,-1.8 2.1,-4.1 1.5,-4.9 0.5,-14.9 -1.4,-14.9 -0.7,0 -2.4,-1.3 -3.8,-3 -1.4,-1.6 -4.4,-3.5 -6.6,-4.2 -2.9,-0.9 -4.1,-1.8 -4.1,-3.2 0,-1.6 0.5,-1.8 3.7,-1.3 9.5,1.6 17.8,12.4 17.1,22.2 -0.3,2.8 -1.2,6.6 -2.1,8.5 -1.5,2.8 -1.5,3.6 -0.4,4.7 1.1,1.2 2.1,1 5.8,-1.1 5.2,-3.1 8.9,-3.4 8.9,-0.8 -0.1,1.7 -8.1,6.2 -11.3,6.2 -1.1,0 -1.7,0.8 -1.7,2.3 0,1.3 -0.7,3.8 -1.6,5.6 -1.9,3.9 -1.1,15.1 1.1,15.1 0.7,0 2.4,1.3 3.7,2.9 1.4,1.6 3.4,3.2 4.6,3.5 1.5,0.5 2.2,1.6 2.2,3.2 0,1.3 -0.1,2.4 -0.2,2.3 -0.2,0 -1.4,-0.5 -2.8,-1 z m 224.6,-1.3 c -0.7,-3 0.2,-5.6 2,-5.6 1,0 1.4,1.2 1.4,4 0,4.5 -2.4,5.6 -3.4,1.6 z m 24.4,-7.2 c 0,-4.4 1.8,-4.2 3.7,0.4 1.3,3.1 1.2,3.2 -1.2,3.2 -2.2,0 -2.5,-0.4 -2.5,-3.6 z m -285.9,-25 c -11.9,-5.9 -15.4,-20.2 -7.8,-31.5 1.6,-2.4 2.3,-5.1 2.5,-8.9 0.1,-4.4 0.7,-5.9 2.6,-7.6 1.3,-1.2 3,-3.7 3.7,-5.7 1.4,-3.9 4.9,-5.3 4.9,-2 0,2.4 -3.7,9.7 -6,11.8 -1.5,1.3 -1.7,2.2 -0.9,3.6 0.8,1.5 1.4,1.7 3.5,0.9 4.1,-1.6 6.4,-1.2 6.4,1 0,1.6 -0.9,2.1 -5,2.6 -3.2,0.4 -5,1.1 -5,2 0,1.3 -1.6,3.6 -4.7,6.9 -2.3,2.4 -2.6,8.3 -0.8,13.1 1.7,4.4 5.7,9.4 7.5,9.4 0.6,0 1,0.5 1,1 0,0.6 0.9,1 2,1 1.5,0 2,0.7 2,2.5 0,1.4 -0.1,2.5 -0.3,2.5 -0.2,0 -2.7,-1.2 -5.6,-2.6 z m 274.2,-13.9 c -0.8,-0.9 0.4,-3.1 4.9,-8.6 3.2,-4.1 7.5,-10 9.5,-13.2 3.5,-5.8 3.5,-5.8 1,-8.5 -4.2,-4.5 -5.9,-9 -5.8,-15.3 0,-8.4 3.8,-15.1 10.6,-19 6,-3.4 9.5,-3.8 9.5,-0.9 0,1.4 -0.9,2.1 -3.5,2.6 -1.9,0.3 -3.5,1 -3.5,1.5 0,0.5 -0.4,0.9 -1,0.9 -0.5,0 -1.9,0.9 -3,2 -1.1,1.1 -2,2.5 -2,3 0,0.6 -0.6,1 -1.4,1 -0.9,0 -1.6,1.8 -2,5.1 -0.6,4.3 -0.3,5.9 2.1,11 1.5,3.2 3.4,5.9 4,5.9 0.7,0 1.3,0.9 1.3,2 0,1.6 0.7,2 3.5,2 2.9,0 3.5,0.4 3.5,2.1 0,1.8 -0.4,2.1 -2.8,1.6 -2.5,-0.5 -3.1,-0.1 -5.6,4.1 -4.6,7.6 -15,21 -16.6,21.5 -0.9,0.2 -2.1,-0.1 -2.7,-0.8 z m -298.4,-26.5 c -13.6,-7.2 -15.8,-24.1 -4.7,-35.3 6.1,-6.1 6.3,-8.3 0.6,-9.2 -17,-2.7 -24.5,-22.9 -13.2,-35.5 5.5,-6 13.4,-9.1 13.4,-5.1 0,1.3 -0.9,2.1 -3,2.6 -1.7,0.4 -3,1.1 -3,1.6 0,0.5 -1.3,0.9 -3,0.9 -2.6,0 -3,0.4 -3,2.8 -0.1,1.5 -0.7,3.8 -1.5,5.2 -2.8,4.9 -1,13.4 4.1,18.4 3.1,3.2 9.9,5.9 13.1,5.3 5.2,-1 10.3,-3.2 10.3,-4.4 0,-0.7 0.6,-1.6 1.3,-2 1.8,-1.2 4.7,-7.9 4.7,-11 0,-3.2 -2.1,-9.3 -3.2,-9.3 -0.4,0 -0.8,-0.9 -0.8,-2 0,-1.4 -0.7,-2 -2.1,-2 -1.2,0 -2.3,-0.8 -2.6,-2 -0.4,-1.5 -1.4,-2 -3.9,-2 -3.2,0 -3.4,-0.2 -3.4,-3.2 0,-1.8 0.4,-2.8 0.8,-2.2 0.4,0.6 1.9,1.4 3.3,1.7 4,1 9.1,4.9 12.2,9.3 6.6,9.5 3.8,23 -6.4,29.5 -2.7,1.8 -4.9,3.3 -4.9,3.5 0,1.4 1.5,3.4 2.6,3.4 0.8,0 1.4,0.7 1.4,1.5 0,0.8 -0.9,1.5 -2,1.5 -1.1,0 -2.8,0.8 -3.9,1.8 -1,0.9 -3.5,3.1 -5.5,4.9 -2,1.8 -3.6,3.7 -3.6,4.3 0,0.5 -0.4,1 -1,1 -1.9,0 -1.1,10.3 1,13.8 1.1,1.8 2,3.9 2,4.7 0,0.8 0.6,1.5 1.4,1.5 3,0 7.6,3.5 7.6,5.8 0,2.6 -0.4,2.7 -5.1,0.2 z m 331.1,0.2 c 0,-1.5 1.1,-2.3 4.5,-3.3 2.5,-0.7 4.5,-1.9 4.5,-2.6 0,-0.8 0.7,-1.6 1.5,-1.9 0.8,-0.4 1.5,-1.2 1.5,-2 0,-0.8 1,-1.4 2.5,-1.4 3,0 3,0.3 0.8,4.1 -2.2,3.7 -7.8,7.7 -12.1,8.5 -2.8,0.6 -3.2,0.4 -3.2,-1.4 z m 13.3,-26.1 c -1.3,-2.6 -2.3,-5.5 -2.3,-6.4 0,-1.1 -0.8,-1.7 -2.5,-1.7 -2.1,0 -2.5,-0.5 -2.5,-3.1 0,-3 0,-3 2.8,-1.1 5.6,4.1 10.2,11.1 10.2,15.7 0,3.4 -3.6,1.3 -5.7,-3.4 z"
           id="path1" />
        <path
           d="m 108.89,314.816 c 0,-1.1 -0.4,-2 -1,-2 -0.5,0 -1,-1.3 -1,-3 0,-2.7 -0.3,-3 -3,-3 -2,0 -3,-0.5 -3,-1.5 0,-1 -1.1,-1.5 -3.5,-1.5 -2.8,0 -3.5,-0.4 -3.5,-2 0,-1.4 0.7,-2 2.1,-2 5.5,0 13.6,6.5 16.4,13.3 1.5,3.7 1.5,3.7 -1,3.7 -1.8,0 -2.5,-0.5 -2.5,-2 z m 309.3,-15.7 c -0.7,-0.2 -1.3,-1 -1.3,-1.7 0,-0.7 -2.2,-2.7 -4.8,-4.3 -6,-3.7 -10.2,-11.3 -10.2,-18.3 0,-9 7.1,-18.6 15.3,-20.5 2,-0.5 2.7,-1.3 2.7,-3.1 0,-1.7 -0.6,-2.4 -1.9,-2.4 -3.2,0 -8.8,-2.8 -12.1,-6.2 -5.4,-5.4 -8,-13.8 -4.2,-13.8 1.4,0 2.2,1.3 3.2,5 0.8,2.9 1.9,5 2.7,5 0.8,0 1.6,0.6 1.9,1.3 0.3,0.8 2,2 3.9,2.7 1.9,0.8 3.5,1.7 3.5,2.2 0,1.4 5.4,0.8 9.5,-1.1 8.3,-3.9 13,-11.8 11.9,-20.1 -0.4,-3.3 -1.1,-5 -2,-5 -0.8,0 -1.4,-1 -1.4,-2.5 0,-1.8 -0.5,-2.5 -2,-2.5 -1.1,0 -3.4,-0.9 -5.2,-2 -1.8,-1.1 -4.3,-2 -5.5,-2 -1.6,0 -2.3,-0.6 -2.3,-2 0,-2.5 3.5,-2.7 8.8,-0.4 17.6,7.3 18.2,32.7 0.9,39.9 -2.8,1.2 -3.7,2.1 -3.7,3.9 0,1.9 0.7,2.6 2.9,3.1 1.7,0.3 4.8,1.9 7,3.6 10.4,7.5 11.6,23.2 2.4,32 -4.6,4.4 -6.5,5.5 -12,6.4 -2.7,0.4 -4.3,1.2 -4.3,2.1 0,1.4 -1.4,1.7 -3.7,0.7 z m 22.7,-24.2 c 0,-9.7 -7.8,-17.5 -17.5,-17.5 -9.7,0 -17.5,7.8 -17.5,17.5 0,9.7 7.8,17.5 17.5,17.5 9.7,0 17.5,-7.8 17.5,-17.5 z m -361,-24.6 c 0,-0.9 -1.2,-2 -2.7,-2.6 -6.7,-2.5 -13.3,-10.4 -13.3,-15.9 0,-3.3 3.4,-2.5 4.8,1.3 1.7,4.5 6.4,9.3 10.6,10.8 3.1,1.1 3.6,1.7 3.6,4.6 0,2.3 -0.5,3.3 -1.5,3.3 -0.8,0 -1.5,-0.7 -1.5,-1.5 z m 6,-3.2 c 0,-2 6.9,-5.3 10.8,-5.3 1.6,0 2.2,-0.6 2.2,-2.2 0,-3.9 3.3,-10.8 5.3,-10.8 2.2,0 2.2,2.4 -0.2,7.5 -2.3,4.9 -6.4,8.9 -11.3,10.9 -4.9,2.1 -6.8,2 -6.8,-0.1 z m 14.3,-26.2 c -1.3,-2.6 -2.3,-5.5 -2.3,-6.4 0,-1.1 -0.8,-1.7 -2.1,-1.7 -3.2,0 -5.9,-1.9 -5.9,-4 0,-1.2 -0.7,-2 -1.7,-2.1 -1.1,0 -1.3,-0.3 -0.5,-0.6 2.3,-0.9 1.2,-4.6 -2.5,-8.2 -3.7,-3.6 -3.7,-3.6 -0.8,-3.9 1.8,-0.2 3.3,0.2 4.1,1.2 0.6,0.9 1.6,1.6 2.3,1.6 0.6,0 1.4,0.7 1.7,1.5 0.4,0.9 1.9,1.5 3.5,1.5 2.2,0 2.9,0.5 2.9,2 0,1.5 -0.7,2 -2.5,2 -3.8,0 -3.1,2.8 1.6,6.8 6.2,5.3 10.2,15.3 6.2,15.2 -1.1,-0.1 -2.6,-1.9 -4,-4.9 z m -36.3,2.5 c 0,-4.9 6.4,-13 12.5,-15.7 5.4,-2.5 8.5,-2.5 8.5,0.1 0,1.2 -0.7,2 -1.7,2 -1,0 -3.3,0.9 -5.1,2 -1.8,1.1 -4.1,2 -5.2,2 -1.5,0 -2,0.7 -2,2.5 0,1.4 -0.4,2.5 -0.9,2.5 -0.5,0 -1.1,1.4 -1.4,3 -0.5,2.1 -1.2,3 -2.7,3 -1.1,0 -2,-0.6 -2,-1.4 z m 337.5,-4.3 c 0.8,-2.1 3.6,-5.7 6.1,-8.1 5,-4.5 5.3,-7.2 0.9,-7.2 -1.8,0 -2.5,-0.5 -2.5,-2 0,-1.7 0.7,-2 4,-2 2.9,0 4,-0.4 4,-1.5 0,-1 1,-1.5 3,-1.5 2.7,0 3,-0.3 3,-3 0,-1.6 0.4,-3 0.9,-3 0.5,0 1.1,-1.3 1.5,-3 0.4,-2.1 1.1,-3 2.6,-3 1.1,0 2,0.7 2,1.5 0,2.8 -3.8,9.1 -7.4,12.3 -3.5,3.1 -3.9,5.6 -1.2,7.4 0.7,0.5 0.4,0.8 -0.6,0.8 -1.1,0 -1.8,0.8 -1.8,1.9 0,2.2 -4,5.1 -7,5.1 -1.5,0 -2,0.7 -2,2.5 0,1.4 -0.4,2.5 -1,2.5 -0.5,0 -1,0.9 -1,2 0,1.5 -0.7,2 -2.5,2 -2.5,0 -2.5,0 -1,-3.7 z m -300.5,-17 c 0,-2 6.9,-5.3 10.8,-5.3 1.8,0 2.2,-0.6 2.2,-3 0,-1.9 0.5,-3 1.4,-3 0.9,0 1.6,-1.8 2,-5.4 0.8,-5.9 -1.1,-11.2 -5.3,-15 -1.2,-1.1 -2.1,-2.5 -2.1,-3.1 0,-0.7 -2.1,-1.5 -5,-1.9 -4.1,-0.5 -5,-1 -5,-2.6 0,-2.2 2.3,-2.6 6.4,-1 2.1,0.8 2.7,0.6 3.6,-1 0.8,-1.4 0.4,-3 -1.5,-6.6 -3,-5.6 -3.3,-9.4 -0.7,-9.4 1.2,0 2.2,1.3 3.1,4.4 0.7,2.5 2,4.7 2.8,5 1.2,0.5 1.4,1.8 1.1,6.1 -0.3,4 -0.1,5.9 0.9,6.7 3,2.5 5.5,9.1 5.6,14.7 0,9 -5.3,17.1 -13.5,20.5 -4.9,2.1 -6.8,2 -6.8,-0.1 z m 292.3,-2.8 c -2.8,-2.4 -2.8,-2.4 1,-2.5 3.3,0 3.7,0.3 3.7,2.5 0,3.1 -1.1,3.2 -4.7,0 z m -313.3,-8.2 c -0.1,-0.5 -0.5,-2.8 -0.9,-5.2 -1.8,-9.4 3.3,-19 12.4,-23.2 5.3,-2.4 7.5,-2.4 7.5,0.1 0,1.6 -0.7,2 -3.5,2 -2.4,0 -3.5,0.5 -3.5,1.5 0,1 -1,1.5 -3,1.5 -2.5,0 -3,0.4 -3,2.3 0,1.2 -0.9,4 -2,6.1 -1.5,3.1 -1.8,5.1 -1.3,9.8 0.5,5 0.3,5.8 -1.1,5.8 -0.9,0 -1.6,-0.3 -1.6,-0.7 z m 306,-1.2 c -1.7,-3.3 -1.2,-6.1 1,-6.1 1.7,0 2,0.7 2,4 0,4.3 -1.3,5.2 -3,2.1 z m 37,-13.1 c 0,-2 -0.5,-3 -1.5,-3 -0.9,0 -1.5,-0.9 -1.5,-2.5 0,-1.8 -0.5,-2.5 -1.9,-2.5 -1.1,0 -3.6,-0.9 -5.5,-2.1 -3.1,-1.8 -4.5,-2 -10.6,-1.4 -5.9,0.6 -7,1 -7,2.5 0,1.1 -0.8,2.5 -1.9,3.2 -1,0.7 -2.1,2.3 -2.5,3.6 -0.5,1.5 -1.5,2.2 -3.1,2.2 -2.3,0 -2.4,-0.2 -1.4,-2.7 0.6,-1.6 2.2,-4.3 3.6,-6.1 2,-2.6 2.2,-3.6 1.3,-4.7 -1,-1.3 -1.6,-1.2 -4.1,0 -4.1,2.1 -6.9,1.9 -6.9,-0.5 0,-1.6 0.7,-2 3.5,-2 1.9,0 3.5,-0.4 3.5,-1 0,-0.5 0.9,-1 2,-1 1.1,0 2,-0.7 2,-1.5 0,-0.8 0.5,-1.5 1,-1.5 0.6,0 1,-0.6 1,-1.2 0,-3.1 3.6,-9.8 5.3,-9.8 0.9,0 1.7,0.7 1.7,1.5 0,2.2 -2.8,8.6 -4.5,10.5 -1.3,1.4 -1.3,1.9 0.1,3.8 1.2,1.8 1.9,2 4,1.2 9,-3.5 20.6,1.6 25.5,11.2 2.4,4.8 2.4,6.8 -0.1,6.8 -1.6,0 -2,-0.7 -2,-3 z"
           id="path2" />
        <path
           d="m 119.19,163.316 c -4.3,-1.8 -4.2,-3.5 0.2,-3.5 3.1,0 3.5,0.3 3.5,2.5 0,1.4 -0.1,2.5 -0.2,2.5 -0.2,-0.1 -1.8,-0.7 -3.5,-1.5 z m 8.7,-0.5 c 0,-1.6 0.7,-2 3.5,-2 4,0 4.9,2.4 1.3,3.4 -3.8,1 -4.8,0.7 -4.8,-1.4 z m 240.9,0 c -10.6,-5.6 -14.9,-19.4 -9.4,-30.1 2.5,-4.7 0.6,-5.6 -4.9,-2.1 -11.3,7.2 -25.3,3.6 -31.1,-8.1 -3,-6.2 -3.3,-9.7 -0.6,-9.7 1.9,0 3.1,3.4 3.1,8.6 0,1.8 0.6,2.4 2.1,2.4 1.1,0 2.3,0.8 2.5,1.8 0.9,3 17.4,7.2 17.4,4.3 0,-0.5 1,-1.3 2.3,-1.7 1.2,-0.4 2.8,-1.5 3.5,-2.5 0.7,-1.1 2.1,-1.9 3.1,-1.9 1.5,0 2,-1.1 2.5,-5 0.5,-4.1 1,-5 2.6,-5 2.1,0 2.6,2.7 1,6.5 -0.5,1.3 -0.3,2.6 0.7,3.7 1.4,1.6 1.8,1.6 5.4,-0.2 5,-2.6 7.9,-2.6 7.9,0 0,1.6 -0.7,2 -3.5,2 -2.4,0 -3.5,0.5 -3.5,1.5 0,0.9 -0.9,1.5 -2.5,1.5 -1.8,0 -2.5,0.5 -2.5,2 0,1.1 -0.9,3.4 -2,5.2 -2.3,3.9 -2.6,10.2 -0.5,13.8 0.8,1.4 1.4,3.7 1.5,5.3 0,2.3 0.4,2.7 3,2.7 1.7,0 3,0.4 3,0.9 0,0.5 1.6,1.2 3.5,1.5 2.6,0.5 3.5,1.2 3.5,2.6 0,2.6 -3.3,2.6 -8.1,0 z"
           id="path3" />
        <path
           d="m 136.89,160.016 c 0,-2 0.8,-3.7 2.4,-4.9 1.3,-1 2.6,-2.9 3,-4.1 0.4,-1.2 1.2,-2.2 1.7,-2.2 1.4,0 1.1,-6.7 -0.6,-10.7 -0.8,-1.9 -1.5,-4.8 -1.5,-6.4 0,-2.6 -0.4,-2.9 -3,-2.9 -1.9,0 -3,-0.5 -3,-1.4 0,-0.9 -1.7,-1.6 -4.9,-2 -8.6,-1.1 -15.9,3 -19.7,11.3 -1.2,2.6 -2.6,4.1 -3.8,4.1 -1.6,0 -1.7,-0.5 -1.2,-3.2 1,-4.8 5.4,-10.6 10.4,-13.5 5.5,-3.2 13.1,-3.6 19.1,-0.8 4.5,2 8,1.2 7.2,-1.7 -1.5,-4.9 -1.3,-6.8 0.7,-6.8 2,0 3.2,2.4 3.2,6.8 0,1.5 0.6,2.2 1.9,2.2 1.1,0 2.6,0.8 3.3,1.8 0.7,1 3.5,2.7 6.1,3.7 4,1.5 5.4,1.6 8.6,0.6 4.4,-1.3 9.1,-1.5 9.1,-0.3 0,1.2 -3.7,3.1 -8.2,4.1 -5.4,1.2 -11.9,-0.1 -17,-3.4 -2,-1.4 -4.4,-2.2 -5.2,-1.9 -1.3,0.5 -1.2,1.2 0.6,4.7 4.6,8.7 1.8,21.5 -5.9,27.5 -3.3,2.5 -3.3,2.5 -3.3,-0.6 z m 257.8,-22.5 c -1,-2.3 -1.8,-5.2 -1.8,-6.5 0,-1.8 -0.6,-2.2 -3,-2.2 -2,0 -3,-0.5 -3,-1.5 0,-1 -1.1,-1.5 -3.5,-1.5 -2.8,0 -3.5,-0.4 -3.5,-2 0,-2.5 2.2,-2.5 7.5,-0.1 6.4,3 12.5,11.1 12.5,16.6 0,3.3 -3.5,1.4 -5.2,-2.8 z m -216.8,-12.5 c 0,-1.8 0.6,-4.5 1.4,-6 0.7,-1.5 1.6,-5.5 1.8,-8.9 0.4,-6.1 0.4,-6.3 -2,-6.3 -1.5,0 -2.6,-0.7 -2.9,-2 -0.3,-1.1 -1.2,-2 -1.9,-2 -0.8,0 -1.7,-0.6 -2,-1.4 -0.3,-0.8 -2.1,-1.7 -4,-2 -2.5,-0.5 -3.4,-1.2 -3.4,-2.6 0,-1.1 0.7,-2 1.5,-2 2.7,0 8.9,3 11.7,5.7 1.8,1.7 3.4,2.4 4.7,2 1.2,-0.3 2.1,-0.1 2.1,0.4 0,0.5 0.9,0.9 2,0.9 1.3,0 2,0.7 2,2 0,1.3 0.7,2 1.9,2 1.1,0 2.8,1.1 3.8,2.4 1,1.3 3.5,2.9 5.6,3.7 3.8,1.4 5.3,4.9 2,4.9 -3.3,0 -10.5,-4.3 -13.1,-7.9 -3.2,-4.3 -6.7,-4.6 -5.2,-0.5 2.1,5.3 0.4,13.7 -3.5,18.1 -2.4,2.8 -2.4,2.8 -2.5,-0.5 z m 30,-11.2 c 0,-1.6 0.7,-2 3.5,-2 2.4,0 3.5,-0.5 3.5,-1.5 0,-1 1,-1.5 2.9,-1.5 2.5,0 3,-0.5 3.4,-3.2 1,-6.2 3.1,-10.8 4.9,-10.8 3.3,0 1.1,8.4 -3.5,13.7 -5.2,6 -14.7,9.4 -14.7,5.3 z m 83.8,0.9 c -3,-1.7 -2,-2.9 2.2,-2.9 3.3,0 4,0.3 4,2 0,2.2 -3.2,2.7 -6.2,0.9 z m 16.2,-3.4 c 0,-2.2 0.4,-2.5 3.8,-2.5 3.7,0.1 3.7,0.1 0.9,2.5 -3.6,3.2 -4.7,3.1 -4.7,0 z m -23.8,-1.3 c -5.5,-5.2 -8.2,-14.2 -4.2,-14.2 1.6,0 2,0.7 2,3 0,1.7 0.5,3 1,3 0.6,0 1,0.5 1,1.1 0,0.6 0.9,1.8 2.1,2.8 1.4,1.1 2,2.5 1.7,4.5 -0.3,2.9 -0.3,2.9 -3.6,-0.2 z m 37.2,-1.6 c 0.7,-3.6 -1.1,-5.5 -3.3,-3.3 -0.8,0.8 -1.1,-0.5 -1.1,-4.8 0,-10.6 -1.1,-16.5 -2.9,-16.5 -2.5,0 -4.1,-2 -4.1,-5.3 0,-2.8 0,-2.8 2.9,-0.8 3.9,2.8 8.1,11.4 8.1,16.7 0,5.4 2.1,6.3 6.2,2.9 5,-4.2 9,-5.8 14.8,-5.9 5.4,0 13,2.6 13,4.5 0,1.2 -4.5,1.1 -9.1,-0.2 -3.2,-1 -4.6,-0.9 -8.6,0.6 -2.6,1 -5.6,2.9 -6.6,4.2 -1,1.3 -2.5,2.3 -3.3,2.3 -0.8,0 -1.4,1 -1.4,2.3 0,4.3 -1.2,6.7 -3.2,6.7 -1.8,0 -1.9,-0.5 -1.4,-3.4 z m 38,-0.1 c -0.3,-1.9 -1,-3.5 -1.5,-3.5 -0.5,0 -0.9,-1.6 -0.9,-3.6 0,-3.3 0.2,-3.5 1.7,-2.3 1.9,1.6 5.2,8.6 5.3,11.2 0,1 -0.8,1.7 -2,1.7 -1.4,0 -2.1,-0.9 -2.6,-3.5 z m -217,-0.7 c 1,-5 5.6,-10.9 10.6,-13.4 5.7,-3 9,-3.1 9,-0.4 0,1.6 -0.7,2 -3,2 -1.6,0 -3,0.5 -3,1 0,0.6 -0.4,1 -0.9,1 -1.8,0 -7,6 -8.2,9.5 -0.9,2.4 -1.9,3.5 -3.2,3.5 -1.7,0 -1.9,-0.5 -1.3,-3.2 z m 103.2,1.7 c -5.1,-1.8 -11.2,-7.9 -13.2,-13.2 -0.9,-2.4 -2.3,-4.3 -3,-4.3 -0.8,0 -1.4,-0.7 -1.4,-1.5 0,-1 -1,-1.5 -2.9,-1.5 -3.2,0 -4.1,-1.4 -4.1,-6.2 0,-3 0,-3.1 2,-1.3 1.1,1 2.2,2.6 2.5,3.6 0.4,1.2 1.6,1.9 3,1.9 2,0 2.7,-0.8 3.7,-4.2 0.8,-2.7 3,-6.1 5.9,-8.9 7.4,-7.5 17.4,-8.6 26.6,-3 3.9,2.4 8,8.4 8.9,12.9 0.6,2.7 0.4,3.2 -1.3,3.2 -1.4,0 -2.4,-1.1 -3.3,-4 -0.7,-2.2 -1.7,-4 -2.2,-4 -0.4,0 -0.8,-0.9 -0.8,-2 0,-1.3 -0.7,-2 -2,-2 -1.1,0 -2,-0.6 -2,-1.4 0,-2 -9.1,-3 -14,-1.5 -2.2,0.7 -4,1.6 -4,2.1 0,0.4 -1.1,0.8 -2.5,0.8 -2,0 -2.5,0.5 -2.5,2.5 0,1.4 -0.4,2.5 -0.9,2.5 -0.4,0 -1.4,2 -2.1,4.4 -1.3,4.6 -0.6,12.6 1.1,12.6 0.5,0 0.9,1.5 0.9,3.4 0,3.2 0.2,3.4 3.8,3.9 2,0.2 5.2,1 6.9,1.8 2.7,1.1 4.1,1.1 8,0.1 2.7,-0.7 5,-1.7 5.1,-2.3 0.2,-0.5 1.5,-0.9 2.8,-0.9 1.9,0 2.4,-0.5 2.4,-2.5 0,-1.6 0.6,-2.5 1.5,-2.5 1,0 1.5,-1 1.5,-3 0,-2.3 0.4,-3 2,-3 2.5,0 2.5,2 0,6.9 -4.9,9.7 -16.2,14.2 -26.4,10.6 z m -60.6,-18.9 c 0,-2.8 2,-6.5 5.5,-10.5 6.3,-7 16.2,-8.7 25.2,-4.4 6.5,3 2.5,4.4 -6.1,2.1 -3.7,-1 -5.1,-0.9 -8.8,0.5 -2.4,0.9 -5.4,1.7 -6.6,1.7 -1.8,0 -2.2,0.6 -2.2,3 0,1.7 -0.4,3 -0.9,3 -0.5,0 -1.2,1.4 -1.6,3 -0.5,2.1 -1.3,3 -2.6,3 -1,0 -1.9,-0.6 -1.9,-1.4 z m 91,-2.1 c 0,-0.8 0.6,-1.5 1.3,-1.5 0.7,0 2.7,-2 4.5,-4.5 3.8,-5.4 8.1,-8.2 13.9,-9.1 5.6,-0.8 11.3,0.3 11.3,2.1 0,1.1 -1.4,1.5 -5.7,1.5 -4,0 -6.8,0.6 -9.1,2 -1.8,1.1 -3.9,2 -4.7,2 -0.8,0 -1.5,0.9 -1.5,2 0,1.1 -0.4,2 -0.9,2 -0.5,0 -1.2,1.1 -1.5,2.5 -0.5,2.1 -1.2,2.5 -4.1,2.5 -2.4,0 -3.5,-0.5 -3.5,-1.5 z"
           id="path4" />
      </g>
      <g
         fill="#af8044"
         id="g6">
        <path
           d="m 231.39,442.916 c -5.3,-2.4 -10.1,-8 -11.5,-13.3 -1.7,-6.6 -1.8,-6.8 -3.9,-6.8 -1.1,0 -2.7,1.4 -3.9,3.4 -3.2,5.5 -8.6,8.9 -14.7,9.4 -8.3,0.7 -11.8,-0.4 -17.3,-5.3 -4.1,-3.7 -5.1,-5.3 -6.1,-9.9 -0.7,-3 -0.9,-7 -0.6,-8.9 0.6,-3 0.4,-3.5 -1.6,-4 -1.6,-0.4 -3,0.1 -4.8,1.9 -6,6.1 -15.9,8.1 -22.7,4.6 -9.5,-4.8 -14.8,-15.4 -12.3,-24.6 0.6,-2.2 1.6,-4.7 2.1,-5.4 0.8,-0.9 0.6,-1.7 -0.8,-2.7 -2.4,-1.8 -3.5,-1.8 -6.1,0 -1.1,0.8 -4.5,1.7 -7.4,2.1 -6.1,0.6 -10.7,-0.8 -15.9,-5.3 -8.5,-7.1 -9.4,-22.1 -1.9,-30.1 1.6,-1.8 1.7,-2.5 0.8,-4 -1,-1.7 -2.1,-1.8 -7.8,-1.4 -6.2,0.4 -7.1,0.2 -11.9,-2.8 -7.2,-4.4 -10.6,-10.3 -10.6,-18.4 0.1,-8.1 3,-13.3 10.6,-18.9 1.2,-0.8 1.5,-2 1.1,-3.9 -0.5,-2.4 -1,-2.8 -4,-2.8 -6.3,0 -13.2,-4.8 -16.7,-11.7 -2.3,-4.6 -2.1,-14.4 0.4,-19.4 2.3,-4.4 8.6,-9.4 13.1,-10.4 2.4,-0.5 2.9,-1.2 2.9,-3.5 0,-2.1 -0.6,-2.9 -2.5,-3.4 -3.7,-0.9 -9.6,-6.5 -11.6,-11.1 -6.3,-13.9 4.3,-30.2 19.8,-30.5 5.4,0 5.2,-3.1 -0.6,-8.7 -4.4,-4.3 -5,-5.4 -5.6,-10.5 -0.9,-7.6 -0.1,-11.7 3.4,-16.5 5.3,-7.4 13.7,-10.6 21.7,-8.4 3.5,1 4.1,0.9 5.6,-1.2 1.5,-2 1.5,-2.4 0.1,-3.9 -2.2,-2.5 -4.2,-8.7 -4.3,-13.6 -0.1,-15.2 17.1,-26 30.5,-19.2 3.8,1.9 4,1.9 5.8,0.2 1.5,-1.5 1.6,-2.3 0.7,-4.6 -1.5,-4.1 -1.2,-10.6 0.9,-15.1 5.9,-13 23.5,-16.6 33.6,-6.8 4.9,4.8 7.1,3.5 7.7,-4.7 0.3,-4.6 1.1,-7 3.4,-10.3 8.6,-12.3 29.3,-11.4 36,1.6 1.1,2 2.2,2.7 4.3,2.7 2.5,0 3,-0.5 3.5,-3.4 2.3,-12.3 18.2,-19.4 30.4,-13.5 4.7,2.3 9.5,8.6 10.7,14 0.5,2.3 1.2,2.9 3.3,2.9 2.1,0 3.2,-0.9 5,-4 3.3,-5.8 9.9,-9.4 17.6,-9.4 6.9,0 9.5,1.1 14.9,6.3 4.2,4 7.2,12.1 6.1,16.5 -0.5,2.1 -0.2,2.6 2.1,3.2 2,0.5 3.2,0.1 5.3,-1.9 8.6,-8.2 23.4,-7.4 30.9,1.8 5.1,6.1 6.2,13 3.7,22.2 -0.9,3.3 2.8,4.9 6.3,2.6 2,-1.3 4.7,-1.8 9.9,-1.8 6.4,0 7.7,0.3 11.6,3 5.3,3.7 9.8,12 9.8,18 0,2.7 -1.1,6.4 -2.9,10 -2.4,4.8 -2.7,6.1 -1.8,7.7 1,1.5 1.8,1.7 4.2,1.1 9.1,-2.4 19.2,1.3 24.2,8.8 5.6,8.5 3.6,21.2 -4.4,27.8 -5.1,4.2 -4,6.7 3.2,7.6 7.2,0.9 14.1,5.5 17.2,11.4 5.7,10.9 0.5,24.8 -10.9,29.6 -5.8,2.3 -5,5 2.2,8.2 8.8,3.8 13.6,12.1 12.8,21.9 -0.8,9.7 -9.6,18.4 -18.5,18.4 -3,0 -3.3,0.3 -3.3,2.9 0,2.1 0.9,3.6 3.4,5.5 4.8,3.6 8.6,11.7 8.6,18.1 0,3.9 -0.7,6.2 -2.9,9.6 -5.3,8.4 -11.5,11.5 -21.2,10.6 -5.8,-0.5 -5.8,-0.5 -8.5,4.1 -3.1,5.2 -8.7,12.9 -13.3,18.2 -3,3.5 -3,3.5 -3.1,0.7 0,-1.9 1.8,-5.3 5.3,-10.1 2.8,-3.9 6.3,-9.2 7.6,-11.7 2.4,-4.6 2.4,-4.6 0.2,-6.8 -3.5,-3.5 -6.1,-10.1 -6.1,-15.5 0,-11.8 9.9,-21.6 21.9,-21.6 2.6,0 3.1,-0.4 3.1,-2.4 0,-1.7 -0.9,-2.7 -3,-3.6 -8.1,-3.4 -13.2,-14.7 -11,-24.2 1.6,-6.5 7.9,-13.1 13.9,-14.8 3.4,-0.9 4.1,-1.5 4.1,-3.5 0,-2 -0.5,-2.5 -2.4,-2.5 -3.4,0 -10.3,-3.9 -13.7,-7.7 -7.7,-8.9 -6,-23.8 3.7,-30.6 3.5,-2.5 4.1,-3.3 3.4,-5.1 -0.6,-1.8 -1.4,-2.1 -5.4,-1.8 -17.7,1.3 -28.6,-22.1 -16.4,-35.5 2.4,-2.6 1.6,-6.9 -1,-5.7 -11.6,5 -24.2,1.2 -29.4,-8.9 -3,-5.9 -3.1,-14.9 -0.1,-19.9 2.1,-3.5 2.1,-3.7 0.3,-5.3 -1.2,-1.1 -2,-1.3 -2.5,-0.5 -0.4,0.6 -2.4,2.2 -4.6,3.5 -7.7,4.9 -20,2.7 -26.6,-4.8 -3.9,-4.5 -6.1,-13.1 -4.6,-18.2 1.7,-5.3 -1.2,-5.6 -5.6,-0.6 -5,5.6 -9.7,8.1 -15.1,8.1 -7.7,0 -12.1,-1.8 -17.2,-7 -4.2,-4.4 -4.8,-5.5 -5.4,-10.9 -0.5,-4.9 -1,-6.1 -2.4,-6.1 -1.2,0 -2.1,1 -2.5,2.9 -1,4.7 -5.9,10.7 -10.7,13 -5.8,2.8 -14.4,2.8 -19.7,0.1 -4.9,-2.4 -9.9,-8.4 -10.7,-12.7 -0.4,-2.3 -1.2,-3.3 -2.4,-3.3 -1.3,0 -1.9,1.1 -2.4,4.8 -1.4,10.4 -8.8,17.9 -18.9,18.9 -7.5,0.8 -13.3,-1.5 -18.6,-7.2 -5.5,-5.9 -6.7,-5.3 -6.3,3.4 0.5,10.2 -3.5,17 -12,20.6 -7.1,2.9 -18.7,1 -22.7,-3.8 -1,-1.3 -1.8,-1.4 -3.2,-0.7 -1.8,1 -1.8,1.2 0.1,6.1 1.1,2.7 2,7.2 2,10 0,14.5 -15.3,24.9 -28.5,19.3 -3.4,-1.4 -3.8,-1.4 -5,0.3 -1.2,1.6 -1,2.1 1,4.3 4.3,4.7 5.7,8.8 5.3,15.6 -0.5,8.4 -4.1,13.8 -11.8,17.7 -4.4,2.3 -6.5,2.8 -10.2,2.4 -4.2,-0.4 -4.7,-0.2 -5.1,1.9 -0.3,1.8 0.3,2.8 2.8,4.3 4.6,2.7 8.8,10.2 9.3,16.5 0.7,9.9 -6.3,19.1 -16.5,21.9 -3.5,0.9 -4.3,1.6 -4.3,3.4 0,1.6 0.7,2.4 2.7,2.9 8.7,2 15.6,11 15.6,20.3 0,8.6 -5.6,17.5 -12.3,19.6 -1.2,0.4 -2,1.5 -2,2.9 0,2.1 0.6,2.4 6.1,3 5,0.5 7,1.2 10.4,4.1 10,8.1 11.3,24.2 2.6,31.9 -4.5,4.1 -1.8,6.8 5.4,5.4 3.6,-0.8 6.2,-0.7 9.3,0.1 5.1,1.4 11.9,7.3 13.9,11.8 1.9,4.7 1.7,14.2 -0.6,18.5 -1.3,2.6 -1.5,4 -0.8,4.7 1.6,1.6 2.6,1.4 8.1,-1.4 10.4,-5.3 22.6,-1.3 27.7,9.1 1.7,3.6 2,5.8 1.7,11.4 -0.3,6.6 -0.2,7 1.7,7 1.2,0 3.2,-1.2 4.6,-2.6 7.2,-7.9 21.9,-8.4 29.7,-1.1 3.6,3.3 6.5,9.6 6.6,14.4 0.1,3.5 0.5,4.2 2.4,4.6 1.8,0.3 2.6,-0.2 3.6,-2.7 3.6,-8.6 14.9,-13.9 24.8,-11.6 6.1,1.5 13.5,8.2 14.5,13 0.7,3.6 1.3,4.1 4.1,3.3 1.8,-0.4 2.2,-1.3 2.2,-4.7 0.1,-16.9 24,-25 35.9,-12.1 2.1,2.3 4.2,5.2 4.6,6.4 0.8,2.5 1,2.5 13.3,-2.4 7.8,-3.1 12.2,-3.5 12.2,-1.3 0,1 -7.8,4.6 -17.4,8 -6.1,2.1 -6.6,2.5 -6.6,5.3 -0.1,6.6 -6.9,16 -13.3,18.4 -4.6,1.8 -12.6,1.3 -17.4,-1 -4,-1.9 -5.2,-3.1 -10.2,-9.8 -2.5,-3.4 -5.5,-2.1 -7,2.9 -1.5,5 -6.2,10.5 -11.2,13.1 -4.9,2.4 -13.1,2.5 -18.4,0 z m 148,-17.5 c -3.6,-1.6 -8,-6.2 -9,-9.5 -0.4,-1.2 -0.7,-3.9 -0.7,-5.8 0,-2.6 -0.5,-3.7 -1.9,-4 -1,-0.3 -1.9,-1.1 -1.9,-1.8 0,-1.3 6.7,-8.5 7.9,-8.5 0.4,0 1.4,-0.9 2.4,-2 2.3,-2.7 4.4,-2.5 5.1,0.5 0.5,1.8 1.3,2.5 3.2,2.5 7.4,0 15.5,9.6 13.6,16.1 -0.6,2.4 -13.1,13.9 -14.9,13.9 -0.4,-0.1 -2.1,-0.7 -3.8,-1.4 z"
           id="path5" />
        <path
           d="m 339.49,401.116 c -0.8,-1.9 1.7,-4.3 4.2,-4.3 1.2,0 1.2,-0.3 0.2,-1.5 -1,-1.2 -1,-1.5 0.4,-1.5 0.9,0 1.6,0.5 1.6,1 0,0.6 1.1,1 2.5,1 2,0 2.5,0.5 2.5,2.7 0,2 -0.3,2.4 -1.1,1.6 -0.9,-0.9 -2.1,-0.7 -5,0.8 -4.6,2.3 -4.5,2.3 -5.3,0.2 z m 36.4,-22.8 c 0,-2.8 -0.4,-3.5 -2,-3.5 -1.5,0 -2,-0.7 -2,-2.5 0,-1.6 -0.6,-2.5 -1.5,-2.5 -1.1,0 -1.5,-1.1 -1.5,-3.7 0.1,-3.8 0.1,-3.8 2.3,-1.2 1.2,1.4 2.7,3.5 3.3,4.5 1,1.7 1.3,1.7 2.9,0.4 1.7,-1.4 1.8,-1.3 1.2,2.6 -0.4,2.2 -0.4,4.4 0,4.8 1.5,1.5 0.9,4.6 -0.9,4.6 -1.4,0 -1.8,-0.8 -1.8,-3.5 z m -41.8,-10.2 c 3.5,-7.4 4.8,-8.1 4.8,-2.8 0,3.1 -0.3,3.5 -2.6,3.5 -1.4,0 -2.4,-0.3 -2.2,-0.7 z m 6.8,-9.3 c 0,-1.2 3.3,-3 5.4,-3 0.9,0 1.6,0.9 1.6,2 0,1.6 -0.7,2 -3.5,2 -1.9,0 -3.5,-0.4 -3.5,-1 z m 13,-2 c 0,-2.1 1,-2.4 4.8,-1.4 3.6,1 2.7,3.4 -1.3,3.4 -2.8,0 -3.5,-0.4 -3.5,-2 z"
           id="path6" />
      </g>
      <g
         fill="#8c6233"
         id="g7">
        <path
           d="m 262.19,423.316 c -0.7,-1.9 -0.5,-2 2.5,-2.9 1.9,-0.6 2.2,-0.4 2.2,1.8 0,1.9 -0.5,2.6 -2,2.6 -1.1,0 -2.3,-0.7 -2.7,-1.5 z m -47.3,-3.1 c 0,-2 0.4,-2.5 1.6,-2 0.9,0.3 1.9,0.6 2.4,0.6 0.4,0 0.6,0.9 0.3,2 -0.8,3.1 -4.3,2.6 -4.3,-0.6 z m 93.8,-6.1 c -0.3,-1.4 1.2,-2.4 6.7,-4.4 3.8,-1.4 12.1,-5.1 18.3,-8.1 11.3,-5.5 11.3,-5.5 8.4,-8.4 -6.4,-6.3 -8.2,-10.1 -8.2,-17.6 0,-10.6 4.3,-17.5 12.5,-19.7 10.7,-2.9 19.8,1 26.5,11.6 2.7,4.3 2.7,4.3 9.2,-2.5 7.2,-7.5 13.8,-16.6 16.7,-22.9 1.4,-2.9 2.7,-3.5 4.1,-1.8 1,1.2 0,3.3 -5.5,11.5 -3.7,5.6 -9.6,12.9 -13.2,16.4 -6.5,6.3 -6.5,6.3 -5.4,10.2 0.5,2.1 1.3,6.6 1.7,10 0.5,5.1 0.3,6.5 -1.2,8.3 -1,1.1 -2.1,2.1 -2.5,2.1 -0.4,0 -2.3,1.6 -4.2,3.5 -4.1,4.1 -5.3,4.2 -13.2,1 -3.3,-1.4 -6.7,-2.5 -7.5,-2.5 -0.9,0 -2,-0.4 -2.6,-1 -0.6,-0.6 -4.6,0.9 -11.4,4.4 -10.4,5.2 -12.5,6.1 -22.9,9.7 -6.5,2.3 -5.9,2.3 -6.3,0.2 z m -137.9,-6.5 c -0.1,-0.2 -0.3,-1.3 -0.4,-2.5 -0.2,-1.8 0.3,-2.3 2,-2.3 2.9,0 3.6,0.9 2.4,3.1 -0.8,1.6 -3.5,2.6 -4,1.7 z m -38.2,-27 c -1.7,-1.4 -1.8,-4.9 0,-5.5 0.5,-0.2 1.8,0.6 2.8,1.7 1.6,1.8 1.7,2.2 0.4,3.5 -1.2,1.2 -1.8,1.3 -3.2,0.3 z m -30.4,-37.4 c -0.3,-0.8 0.1,-2.2 0.9,-3 1.3,-1.3 1.6,-1.3 2.7,0 1.1,1.3 1,1.8 -0.2,3.1 -2,1.9 -2.6,1.9 -3.4,-0.1 z m -17.3,-44 c 0,-0.7 -0.3,-1.9 -0.6,-2.8 -0.5,-1.2 0,-1.6 2,-1.6 2.2,0 2.6,0.5 2.6,2.8 0,2.1 -0.5,2.8 -2,2.8 -1.1,0 -2,-0.6 -2,-1.2 z m 333.8,0.9 c -2.2,-0.5 -2.4,-3.9 -0.2,-4.7 2.7,-1 3.4,-0.7 3.4,1.8 0,2.8 -0.7,3.4 -3.2,2.9 z m -337,-47 c -1.7,-0.4 -2.5,-3.3 -1.2,-4.5 1.1,-1.2 4.4,0.5 4.4,2.3 0,2.1 -0.9,2.7 -3.2,2.2 z m 339.2,-1.8 c 0,-1.8 0.5,-2.5 2,-2.5 1.5,0 2,0.7 2,2.5 0,1.8 -0.5,2.5 -2,2.5 -1.5,0 -2,-0.7 -2,-2.5 z m -332,-45.5 c 0,-2.4 2.1,-4.9 3.6,-4.3 2.3,0.9 1.3,4.7 -1.3,5.1 -1.3,0.2 -2.3,-0.2 -2.3,-0.8 z m 323,-2.2 c 0,-3.6 2.7,-3.7 4,-0.2 0.6,1.4 1,2.6 1,2.7 0,0.1 -1.1,0.2 -2.5,0.2 -2.1,0 -2.5,-0.5 -2.5,-2.7 z m -300.7,-39.5 c -1.5,-0.5 -1.7,-3.9 -0.4,-4.7 1.7,-1.1 4.2,0.6 3.9,2.7 -0.3,2.2 -1.5,2.9 -3.5,2 z m 280,-1.2 c -0.9,-1.4 -0.9,-2.1 0,-3 1.6,-1.6 2.5,-1.4 3.8,1 0.9,1.7 0.8,2.3 -0.2,3 -2,1.2 -2.3,1.1 -3.6,-1 z m -249.3,-35.6 c -1.2,-1.4 -1.1,-1.8 0.1,-2.6 2,-1.2 3.4,-0.6 3.4,1.6 0,2.4 -1.9,3 -3.5,1 z m 218.4,0.7 c -1.4,-0.9 -1.3,-5.2 0.2,-5.2 0.6,0 1.8,0.8 2.7,1.8 1.3,1.4 1.4,2.1 0.5,3 -1.4,1.4 -1.9,1.4 -3.4,0.4 z m -39.6,-24 c -2.1,-0.4 -3.2,-3.3 -1.6,-4.4 1.6,-1 2,-1 3.6,0 1.8,1.2 0.2,4.9 -2,4.4 z m -138.7,-1.6 c -2,-1.1 -2.1,-1.4 -0.6,-1.9 2.9,-1.2 4.2,-0.8 4.8,1.3 0.6,2.3 -0.7,2.5 -4.2,0.6 z m 44.9,-13.1 c 0,-3.5 3.4,-3.5 3.6,0 0.2,1.8 -0.3,2.5 -1.7,2.5 -1.4,0 -1.9,-0.7 -1.9,-2.5 z m 47,0 c 0,-2 0.5,-2.5 2.5,-2.5 1.4,0 2.5,0.5 2.5,1 0,0.6 -0.4,1 -1,1 -0.5,0 -0.7,0.7 -0.4,1.5 0.4,1 0,1.5 -1.5,1.5 -1.6,0 -2.1,-0.6 -2.1,-2.5 z"
           id="path7" />
      </g>
      <text
         xml:space="preserve"
         x="116.581"
         y="286.54599"
         style="font-size:132.465px;line-height:1.25;font-family:sans-serif;text-align:justify;letter-spacing:0;word-spacing:0;fill:#297c7e;fill-opacity:1;stroke-width:3.31163"
         transform="translate(-6,10)"
         id="text7"><tspan
           x="116.581"
           y="286.54599"
           style="font-style:normal;font-variant:normal;font-weight:500;font-stretch:normal;font-family:'El Messiri';-inkscape-font-specification:'El Messiri Medium';fill:#297c7e;fill-opacity:1;stroke-width:3.31163"
           id="tspan7">وردك</tspan></text>
    </g>
  </g>
</svg>
